<svg preserveAspectRatio="none" overflow="visible" style="display: block;" width="73" height="73" viewBox="0 0 73 73" fill="none" xmlns="http://www.w3.org/2000/svg">
<g id="Isologo">
<path d="M55.0641 0H17.9359C8.03018 0 0 8.03018 0 17.9359V55.0641C0 64.9698 8.03018 73 17.9359 73H55.0641C64.9698 73 73 64.9698 73 55.0641V17.9359C73 8.03018 64.9698 0 55.0641 0Z" fill="#006572"/>
<path d="M60.1717 47.9717C56.7848 47.3071 55.1551 44.5666 54.4086 42.6182C57.413 40.3785 59.3523 36.8005 59.3523 32.7672C59.3523 25.9843 53.8532 20.4852 47.0703 20.4852H25.3469C18.2545 20.4852 12.5551 25.9843 12.5551 32.758C12.5551 39.5318 18.0907 45.0309 25.3469 45.0309C28.8067 45.0309 31.9295 43.6835 34.233 41.5166C34.6791 41.0978 34.6427 40.3876 34.1783 39.9961L30.3909 36.8004C29.2528 38.2572 27.4865 39.1494 25.3743 39.1494C21.605 39.1494 18.9374 36.4909 18.9374 32.7489C18.9374 29.007 21.5959 26.3485 25.3743 26.3485H37.2739C37.8657 26.3485 38.3482 26.831 38.3482 27.4228V38.9764C38.3482 42.2632 37.2101 43.7472 34.2603 44.9854C34.2148 45.0036 34.2603 45.0309 34.2603 45.0309H46.1599C49.9018 49.3192 57.2674 48.9641 60.0078 48.7911C60.4631 48.7638 60.6178 48.0354 60.1717 47.9535V47.9717Z" fill="#C6FEFF"/>
<path d="M30.9827 52.5057C31.757 52.5057 32.3848 51.878 32.3848 51.1036C32.3848 50.3293 31.757 49.7015 30.9827 49.7015C30.2083 49.7015 29.5806 50.3293 29.5806 51.1036C29.5806 51.878 30.2083 52.5057 30.9827 52.5057Z" fill="#C6FEFF"/>
<path d="M36.5 52.5057C37.2743 52.5057 37.9021 51.878 37.9021 51.1036C37.9021 50.3293 37.2743 49.7015 36.5 49.7015C35.7256 49.7015 35.0979 50.3293 35.0979 51.1036C35.0979 51.878 35.7256 52.5057 36.5 52.5057Z" fill="#C6FEFF"/>
<path d="M42.0173 52.5057C42.7917 52.5057 43.4194 51.878 43.4194 51.1036C43.4194 50.3293 42.7917 49.7015 42.0173 49.7015C41.243 49.7015 40.6152 50.3293 40.6152 51.1036C40.6152 51.878 41.243 52.5057 42.0173 52.5057Z" fill="#C6FEFF"/>
</g>
</svg>
