<svg preserveAspectRatio="none" overflow="visible" style="display: block;" width="318" height="62" viewBox="0 0 318 62" fill="none" xmlns="http://www.w3.org/2000/svg">
<g id="Logotipo">
<g id="Logotipo secundario 1">
<path d="M268.078 34.055C270.144 34.055 271.677 35.5748 271.677 37.6234C271.677 39.6721 270.151 41.1919 268.078 41.1919C266.005 41.1919 264.479 39.6319 264.479 37.6234C264.479 35.615 266.005 34.055 268.078 34.055Z" fill="#A1E298"/>
<path d="M278.077 10C280.312 10 282.007 11.6804 282.007 13.8965C282.007 16.1125 280.312 17.7929 278.077 17.7929C275.842 17.7929 274.148 16.1125 274.148 13.8965C274.148 11.6804 275.842 10 278.077 10ZM274.566 19.4667H281.595V41.1919H274.566V19.4667Z" fill="#A1E298"/>
<path d="M308 19.5069V41.1852H303.038C301.897 41.1852 300.972 40.268 300.972 39.1365V37.3289H299.77L295.51 41.5936C289.312 41.5936 284.268 36.5924 284.268 30.3259C284.268 24.0594 289.312 19.0583 295.51 19.0583C298.609 19.0583 301.417 20.3303 303.443 22.3388L304.266 19.5136H307.986L308 19.5069ZM296.178 35.4543C298.825 35.4543 300.972 33.1981 300.972 30.3326C300.972 27.4672 298.825 25.211 296.178 25.211C293.531 25.211 291.303 27.5073 291.303 30.3326C291.303 33.1579 293.538 35.4543 296.178 35.4543Z" fill="#A1E298"/>
<path d="M96.6562 19.4667C92.1529 19.4667 88.9661 22.62 88.9661 27.0521C88.9661 31.4842 92.1461 34.6375 96.6562 34.6375C99.1745 34.6375 101.288 33.573 102.652 31.8524L106.979 35.4744C107.661 36.0434 107.661 37.0812 106.993 37.6703C104.265 40.1006 100.626 41.607 96.6157 41.607C87.9332 41.607 81.3234 35.2936 81.3234 27.0588C81.3234 18.824 88.1425 12.5106 96.6157 12.5106H106.824V19.4801H96.6562V19.4667Z" fill="#C6FEFF"/>
<path d="M128.172 41.1919C127.038 41.1919 126.12 40.2814 126.12 39.1566V37.8712H125.006L121.286 41.6003C115.419 41.6003 110.666 36.8468 110.666 30.9419V19.4667H117.694V30.9419C117.694 33.4391 119.551 35.4476 121.866 35.4476C124.182 35.4476 126.127 33.3989 126.127 30.9419V19.4667H133.155V41.1919H128.172Z" fill="#C6FEFF"/>
<path d="M139.549 10C141.784 10 143.478 11.6804 143.478 13.8965C143.478 16.1125 141.784 17.7929 139.549 17.7929C137.314 17.7929 135.619 16.1125 135.619 13.8965C135.619 11.6804 137.314 10 139.549 10ZM136.038 19.4667H143.066V41.1919H136.038V19.4667Z" fill="#C6FEFF"/>
<path d="M169.472 10.4486V41.1852H164.496C163.361 41.1852 162.443 40.2747 162.443 39.1499V37.3289H161.242L156.981 41.5936C150.783 41.5936 145.74 36.5924 145.74 30.3259C145.74 24.0594 150.783 19.0583 156.981 19.0583C158.966 19.0583 160.823 19.547 162.437 20.4508V10.4486H169.472ZM157.65 35.4543C160.296 35.4543 162.443 33.1981 162.443 30.3326C162.443 27.4672 160.296 25.211 157.65 25.211C155.003 25.211 152.775 27.5073 152.775 30.3326C152.775 33.1579 155.01 35.4543 157.65 35.4543Z" fill="#C6FEFF"/>
<path d="M195.472 19.5069V41.1852H190.509C189.368 41.1852 188.443 40.268 188.443 39.1365V37.3356H187.242L182.981 41.6003C176.784 41.6003 171.74 36.5991 171.74 30.3326C171.74 24.0661 176.784 19.065 182.981 19.065C186.08 19.065 188.889 20.337 190.915 22.3455L191.738 19.5202H195.458L195.472 19.5069ZM183.65 35.4543C186.297 35.4543 188.443 33.1981 188.443 30.3326C188.443 27.4672 186.297 25.211 183.65 25.211C181.003 25.211 178.775 27.5073 178.775 30.3326C178.775 33.1579 181.01 35.4543 183.65 35.4543Z" fill="#C6FEFF"/>
<path d="M197.943 19.4667H204.971V22.9481H205.923L209.805 19.0516H215.429V25.1976H209.232C206.916 25.1976 204.978 27.2462 204.978 29.7033V41.1785H197.95V19.4667H197.943Z" fill="#C6FEFF"/>
<path d="M217.907 19.4667H221.216V13.8496H228.244V19.4667H233.659V25.6127H228.244V30.1184C228.244 32.783 230.438 35.0392 233.119 35.0392H236.217V41.1852H233.078C226.509 41.1852 221.216 36.2242 221.216 30.1184V25.6127H217.907V19.4667Z" fill="#C6FEFF"/>
<path d="M250.348 19.0583C256.796 19.0583 262.211 23.8921 262.211 30.3259V32.9504H246.419C247.29 34.2224 248.735 35.0392 250.389 35.0392H258.903V41.1852H250.348C243.82 41.1852 238.486 36.2644 238.486 30.1184C238.486 23.9724 243.779 19.0516 250.348 19.0516V19.0583ZM250.389 25.2043C248.485 25.2043 246.75 26.396 245.967 28.1166H254.73C253.947 26.396 252.293 25.2043 250.389 25.2043Z" fill="#C6FEFF"/>
<path d="M67.5975 45.5704C63.4993 44.7804 61.5278 41.4864 60.6299 39.1566C64.2622 36.4719 66.6118 32.1804 66.6118 27.34C66.6118 19.2056 59.9615 12.611 51.7583 12.611H25.4746C16.9001 12.611 10 19.2056 10 27.3333C10 35.461 16.6908 42.0622 25.4746 42.0622C29.6605 42.0622 33.4414 40.442 36.2298 37.8511C36.7631 37.3556 36.7294 36.492 36.169 36.0233L31.5847 32.1871C30.2074 33.9278 28.0739 35.0057 25.5218 35.0057C20.9645 35.0057 17.744 31.8122 17.744 27.3333C17.744 22.8543 20.9645 19.6608 25.5218 19.6608H39.9094C40.6318 19.6608 41.2124 20.2366 41.2124 20.953V34.8049C41.2124 38.7549 39.8419 40.5291 36.2703 42.0087C36.2095 42.0354 36.2703 42.0622 36.2703 42.0622H50.6578C55.1814 47.2039 64.0934 46.7822 67.4017 46.5746C67.9486 46.5411 68.1376 45.6708 67.5975 45.5637V45.5704Z" fill="#C6FEFF"/>
<path d="M32.2801 51C33.216 51 33.9748 50.2476 33.9748 49.3196C33.9748 48.3915 33.216 47.6391 32.2801 47.6391C31.3442 47.6391 30.5855 48.3915 30.5855 49.3196C30.5855 50.2476 31.3442 51 32.2801 51Z" fill="#C6FEFF"/>
<path d="M38.9574 51C39.8933 51 40.652 50.2476 40.652 49.3196C40.652 48.3915 39.8933 47.6391 38.9574 47.6391C38.0215 47.6391 37.2628 48.3915 37.2628 49.3196C37.2628 50.2476 38.0215 51 38.9574 51Z" fill="#C6FEFF"/>
<path d="M45.6347 51C46.5706 51 47.3293 50.2476 47.3293 49.3196C47.3293 48.3915 46.5706 47.6391 45.6347 47.6391C44.6988 47.6391 43.9401 48.3915 43.9401 49.3196C43.9401 50.2476 44.6988 51 45.6347 51Z" fill="#C6FEFF"/>
</g>
</g>
</svg>
