<svg preserveAspectRatio="none" overflow="visible" style="display: block;" width="84.6667" height="84.6667" viewBox="0 0 84.6667 84.6667" fill="none" xmlns="http://www.w3.org/2000/svg">
<g id="Square memotest">
<rect x="1" y="1" width="82.6667" height="82.6667" rx="7" stroke="#A1E298" stroke-width="2"/>
<path id="Vector (Stroke)" d="M57.0782 23.6493C58.1661 22.5614 59.9295 22.5614 61.0174 23.6493C62.1053 24.7372 62.1053 26.5006 61.0174 27.5885L46.2725 42.3333L61.0174 57.0782C62.1053 58.1661 62.1053 59.9295 61.0174 61.0174C59.9295 62.1053 58.1661 62.1053 57.0782 61.0174L42.3333 46.2725L27.5885 61.0174C26.5006 62.1053 24.7372 62.1053 23.6493 61.0174C22.5614 59.9295 22.5614 58.1661 23.6493 57.0782L38.3941 42.3333L23.6493 27.5885C22.5614 26.5006 22.5614 24.7372 23.6493 23.6493C24.7372 22.5614 26.5006 22.5614 27.5885 23.6493L42.3333 38.3941L57.0782 23.6493Z" fill="#003F44"/>
</g>
</svg>
